# Blender v2.80 (sub 74) OBJ File: ''
# www.blender.org
mtllib missile_antigravitational.mtl
o Shape1
v 0.687500 4.375000 0.687501
v 0.687500 -0.000000 0.687500
v 0.687500 4.375000 0.312501
v 0.687500 0.000000 0.312500
v 0.312500 4.375000 0.312501
v 0.312500 0.000000 0.312500
v 0.312500 4.375000 0.687501
v 0.312500 -0.000000 0.687500
vt 0.000122 0.953003
vt 0.000122 0.406372
vt 0.046753 0.953003
vt 0.046753 0.406372
vt 0.093872 0.953003
vt 0.093872 0.406372
vt 0.140503 0.953003
vt 0.140503 0.406372
vt 0.093628 0.953247
vt 0.093628 0.999878
vt 0.046997 0.953247
vt 0.046997 0.999878
vt 0.140503 0.999878
vt 0.140503 0.953247
vt 0.093872 0.999878
vt 0.093872 0.953247
vt 0.140747 0.953003
vt 0.140747 0.406372
vt 0.187378 0.953003
vt 0.187378 0.406372
vt 0.046997 0.953003
vt 0.046997 0.406372
vt 0.093628 0.953003
vt 0.093628 0.406372
vn 1.0000 0.0000 0.0000
vn -1.0000 0.0000 0.0000
vn 0.0000 1.0000 0.0000
vn 0.0000 -1.0000 -0.0000
vn 0.0000 -0.0000 1.0000
vn 0.0000 0.0000 -1.0000
usemtl Material
s 1
f 1/1/1 2/2/1 3/3/1
f 2/2/1 4/4/1 3/3/1
f 5/5/2 6/6/2 7/7/2
f 6/6/2 8/8/2 7/7/2
f 5/9/3 7/10/3 3/11/3
f 7/10/3 1/12/3 3/11/3
f 8/13/4 6/14/4 2/15/4
f 6/14/4 4/16/4 2/15/4
f 7/17/5 8/18/5 1/19/5
f 8/18/5 2/20/5 1/19/5
f 3/21/6 4/22/6 5/23/6
f 4/22/6 6/24/6 5/23/6
o Shape2
v 0.562500 0.312500 1.062500
v 0.562500 -0.000000 1.062500
v 0.562500 0.312500 -0.062500
v 0.562500 0.000000 -0.062500
v 0.437500 0.312500 -0.062500
v 0.437500 0.000000 -0.062500
v 0.437500 0.312500 1.062500
v 0.437500 -0.000000 1.062500
vt 0.195435 0.859253
vt 0.195435 0.820435
vt 0.335815 0.859253
vt 0.335815 0.820435
vt 0.351685 0.859253
vt 0.351685 0.820435
vt 0.492065 0.859253
vt 0.492065 0.820435
vt 0.351440 0.859497
vt 0.351440 0.999878
vt 0.336060 0.859497
vt 0.336060 0.999878
vt 0.367065 0.999878
vt 0.367065 0.859497
vt 0.351685 0.999878
vt 0.351685 0.859497
vt 0.492310 0.859253
vt 0.492310 0.820435
vt 0.507690 0.859253
vt 0.507690 0.820435
vt 0.336060 0.859253
vt 0.336060 0.820435
vt 0.351440 0.859253
vt 0.351440 0.820435
vn 1.0000 0.0000 0.0000
vn -1.0000 0.0000 0.0000
vn 0.0000 1.0000 0.0000
vn 0.0000 -1.0000 -0.0000
vn 0.0000 0.0000 1.0000
vn 0.0000 0.0000 -1.0000
usemtl Material
s 1
f 9/25/7 10/26/7 11/27/7
f 10/26/7 12/28/7 11/27/7
f 13/29/8 14/30/8 15/31/8
f 14/30/8 16/32/8 15/31/8
f 13/33/9 15/34/9 11/35/9
f 15/34/9 9/36/9 11/35/9
f 16/37/10 14/38/10 10/39/10
f 14/38/10 12/40/10 10/39/10
f 15/41/11 16/42/11 9/43/11
f 16/42/11 10/44/11 9/43/11
f 11/45/12 12/46/12 13/47/12
f 12/46/12 14/48/12 13/47/12
o Shape3
v 1.062500 0.312500 0.562500
v 1.062500 -0.000000 0.562500
v 1.062500 0.312500 0.437500
v 1.062500 0.000000 0.437500
v -0.062500 0.312500 0.437500
v -0.062500 0.000000 0.437500
v -0.062500 0.312500 0.562500
v -0.062500 -0.000000 0.562500
vt 0.195435 0.788940
vt 0.195435 0.750122
vt 0.210815 0.788940
vt 0.210815 0.750122
vt 0.351685 0.788940
vt 0.351685 0.750122
vt 0.367065 0.788940
vt 0.367065 0.750122
vt 0.351440 0.789185
vt 0.351440 0.804565
vt 0.211060 0.789185
vt 0.211060 0.804565
vt 0.492065 0.804565
vt 0.492065 0.789185
vt 0.351685 0.804565
vt 0.351685 0.789185
vt 0.367310 0.788940
vt 0.367310 0.750122
vt 0.507690 0.788940
vt 0.507690 0.750122
vt 0.211060 0.788940
vt 0.211060 0.750122
vt 0.351440 0.788940
vt 0.351440 0.750122
vn 1.0000 0.0000 0.0000
vn -1.0000 0.0000 0.0000
vn 0.0000 1.0000 0.0000
vn 0.0000 -1.0000 -0.0000
vn 0.0000 -0.0000 1.0000
vn 0.0000 0.0000 -1.0000
usemtl Material
s 1
f 17/49/13 18/50/13 19/51/13
f 18/50/13 20/52/13 19/51/13
f 21/53/14 22/54/14 23/55/14
f 22/54/14 24/56/14 23/55/14
f 21/57/15 23/58/15 19/59/15
f 23/58/15 17/60/15 19/59/15
f 24/61/16 22/62/16 18/63/16
f 22/62/16 20/64/16 18/63/16
f 23/65/17 24/66/17 17/67/17
f 24/66/17 18/68/17 17/67/17
f 19/69/18 20/70/18 21/71/18
f 20/70/18 22/72/18 21/71/18
o Shape4
v 0.875000 4.000000 0.562501
v 0.875000 3.250000 0.562501
v 0.875000 4.000000 0.437501
v 0.875000 3.250000 0.437501
v 0.125000 4.000000 0.437501
v 0.125000 3.250000 0.437501
v 0.125000 4.000000 0.562501
v 0.125000 3.250000 0.562501
vt 0.195435 0.476440
vt 0.195435 0.382935
vt 0.210815 0.476440
vt 0.210815 0.382935
vt 0.304810 0.476440
vt 0.304810 0.382935
vt 0.320190 0.476440
vt 0.320190 0.382935
vt 0.304565 0.476685
vt 0.304565 0.492065
vt 0.211060 0.476685
vt 0.211060 0.492065
vt 0.398315 0.492065
vt 0.398315 0.476685
vt 0.304810 0.492065
vt 0.304810 0.476685
vt 0.320435 0.476440
vt 0.320435 0.382935
vt 0.413940 0.476440
vt 0.413940 0.382935
vt 0.211060 0.476440
vt 0.211060 0.382935
vt 0.304565 0.476440
vt 0.304565 0.382935
vn 1.0000 0.0000 0.0000
vn -1.0000 0.0000 0.0000
vn 0.0000 1.0000 0.0000
vn 0.0000 -1.0000 0.0000
vn 0.0000 -0.0000 1.0000
vn 0.0000 0.0000 -1.0000
usemtl Material
s 1
f 25/73/19 26/74/19 27/75/19
f 26/74/19 28/76/19 27/75/19
f 29/77/20 30/78/20 31/79/20
f 30/78/20 32/80/20 31/79/20
f 29/81/21 31/82/21 27/83/21
f 31/82/21 25/84/21 27/83/21
f 32/85/22 30/86/22 26/87/22
f 30/86/22 28/88/22 26/87/22
f 31/89/23 32/90/23 25/91/23
f 32/90/23 26/92/23 25/91/23
f 27/93/24 28/94/24 29/95/24
f 28/94/24 30/96/24 29/95/24
o Shape5
v 0.562500 4.000000 0.875001
v 0.562500 3.250000 0.875001
v 0.562500 4.000000 0.125001
v 0.562500 3.250000 0.125001
v 0.437500 4.000000 0.125001
v 0.437500 3.250000 0.125001
v 0.437500 4.000000 0.875001
v 0.437500 3.250000 0.875001
vt 0.195435 0.593628
vt 0.195435 0.500122
vt 0.288940 0.593628
vt 0.288940 0.500122
vt 0.304810 0.593628
vt 0.304810 0.500122
vt 0.398315 0.593628
vt 0.398315 0.500122
vt 0.304565 0.593872
vt 0.304565 0.687378
vt 0.289185 0.593872
vt 0.289185 0.687378
vt 0.320190 0.687378
vt 0.320190 0.593872
vt 0.304810 0.687378
vt 0.304810 0.593872
vt 0.398560 0.593628
vt 0.398560 0.500122
vt 0.413940 0.593628
vt 0.413940 0.500122
vt 0.289185 0.593628
vt 0.289185 0.500122
vt 0.304565 0.593628
vt 0.304565 0.500122
vn 1.0000 0.0000 0.0000
vn -1.0000 0.0000 0.0000
vn 0.0000 1.0000 0.0000
vn 0.0000 -1.0000 0.0000
vn 0.0000 -0.0000 1.0000
vn 0.0000 0.0000 -1.0000
usemtl Material
s 1
f 33/97/25 34/98/25 35/99/25
f 34/98/25 36/100/25 35/99/25
f 37/101/26 38/102/26 39/103/26
f 38/102/26 40/104/26 39/103/26
f 37/105/27 39/106/27 35/107/27
f 39/106/27 33/108/27 35/107/27
f 40/109/28 38/110/28 34/111/28
f 38/110/28 36/112/28 34/111/28
f 39/113/29 40/114/29 33/115/29
f 40/114/29 34/116/29 33/115/29
f 35/117/30 36/118/30 37/119/30
f 36/118/30 38/120/30 37/119/30
o Shape6
v 0.812500 0.937500 0.812500
v 0.812500 -0.000000 0.812500
v 0.812500 0.937500 0.187500
v 0.812500 0.000000 0.187500
v 0.187500 0.937500 0.187500
v 0.187500 0.000000 0.187500
v 0.187500 0.937500 0.812500
v 0.187500 -0.000000 0.812500
vt 0.000122 0.296753
vt 0.000122 0.179810
vt 0.078003 0.296753
vt 0.078003 0.179810
vt 0.156372 0.296753
vt 0.156372 0.179810
vt 0.234253 0.296753
vt 0.234253 0.179810
vt 0.156128 0.296997
vt 0.156128 0.374878
vt 0.078247 0.296997
vt 0.078247 0.374878
vt 0.234253 0.374878
vt 0.234253 0.296997
vt 0.156372 0.374878
vt 0.156372 0.296997
vt 0.234497 0.296753
vt 0.234497 0.179810
vt 0.312378 0.296753
vt 0.312378 0.179810
vt 0.078247 0.296753
vt 0.078247 0.179810
vt 0.156128 0.296753
vt 0.156128 0.179810
vn 1.0000 0.0000 0.0000
vn -1.0000 0.0000 0.0000
vn 0.0000 1.0000 0.0000
vn 0.0000 -1.0000 -0.0000
vn 0.0000 -0.0000 1.0000
vn 0.0000 0.0000 -1.0000
usemtl Material
s 1
f 41/121/31 42/122/31 43/123/31
f 42/122/31 44/124/31 43/123/31
f 45/125/32 46/126/32 47/127/32
f 46/126/32 48/128/32 47/127/32
f 45/129/33 47/130/33 43/131/33
f 47/130/33 41/132/33 43/131/33
f 48/133/34 46/134/34 42/135/34
f 46/134/34 44/136/34 42/135/34
f 47/137/35 48/138/35 41/139/35
f 48/138/35 42/140/35 41/139/35
f 43/141/36 44/142/36 45/143/36
f 44/142/36 46/144/36 45/143/36
o Shape7
v 0.750000 4.812500 0.750001
v 0.750000 4.375000 0.750001
v 0.750000 4.812500 0.250001
v 0.750000 4.375000 0.250001
v 0.250000 4.812500 0.250001
v 0.250000 4.375000 0.250001
v 0.250000 4.812500 0.750001
v 0.250000 4.375000 0.750001
vt 0.000122 0.109253
vt 0.000122 0.054810
vt 0.062378 0.109253
vt 0.062378 0.054810
vt 0.125122 0.109253
vt 0.125122 0.054810
vt 0.187378 0.109253
vt 0.187378 0.054810
vt 0.124878 0.109497
vt 0.124878 0.171753
vt 0.062622 0.109497
vt 0.062622 0.171753
vt 0.187378 0.171753
vt 0.187378 0.109497
vt 0.125122 0.171753
vt 0.125122 0.109497
vt 0.187622 0.109253
vt 0.187622 0.054810
vt 0.249878 0.109253
vt 0.249878 0.054810
vt 0.062622 0.109253
vt 0.062622 0.054810
vt 0.124878 0.109253
vt 0.124878 0.054810
vn 1.0000 0.0000 0.0000
vn -1.0000 0.0000 0.0000
vn 0.0000 1.0000 0.0000
vn 0.0000 -1.0000 0.0000
vn 0.0000 -0.0000 1.0000
vn 0.0000 0.0000 -1.0000
usemtl Material
s 1
f 49/145/37 50/146/37 51/147/37
f 50/146/37 52/148/37 51/147/37
f 53/149/38 54/150/38 55/151/38
f 54/150/38 56/152/38 55/151/38
f 53/153/39 55/154/39 51/155/39
f 55/154/39 49/156/39 51/155/39
f 56/157/40 54/158/40 50/159/40
f 54/158/40 52/160/40 50/159/40
f 55/161/41 56/162/41 49/163/41
f 56/162/41 50/164/41 49/163/41
f 51/165/42 52/166/42 53/167/42
f 52/166/42 54/168/42 53/167/42
o Shape8
v 0.601395 4.730193 0.676777
v 0.702790 4.585386 0.500001
v 0.500000 4.875000 0.500001
v 0.601395 4.730193 0.323224
v 0.295212 4.731606 0.500001
v 0.396607 4.586799 0.323224
v 0.396607 4.586799 0.676777
v 0.498002 4.441992 0.500001
vt 0.546997 0.968628
vt 0.546997 0.937622
vt 0.578003 0.968628
vt 0.578003 0.937622
vt 0.609497 0.968628
vt 0.609497 0.937622
vt 0.640503 0.968628
vt 0.640503 0.937622
vt 0.609253 0.968872
vt 0.609253 0.999878
vt 0.578247 0.968872
vt 0.578247 0.999878
vt 0.640503 0.999878
vt 0.640503 0.968872
vt 0.609497 0.999878
vt 0.609497 0.968872
vt 0.640747 0.968628
vt 0.640747 0.937622
vt 0.671753 0.968628
vt 0.671753 0.937622
vt 0.578247 0.968628
vt 0.578247 0.937622
vt 0.609253 0.968628
vt 0.609253 0.937622
vn 0.8192 0.5736 0.0000
vn -0.8192 -0.5736 0.0000
vn -0.4056 0.5792 0.7071
vn 0.4056 -0.5792 -0.7071
vn 0.4056 -0.5792 0.7071
vn -0.4056 0.5792 -0.7071
usemtl Material
s 1
f 57/169/43 58/170/43 59/171/43
f 58/170/43 60/172/43 59/171/43
f 61/173/44 62/174/44 63/175/44
f 62/174/44 64/176/44 63/175/44
f 61/177/45 63/178/45 59/179/45
f 63/178/45 57/180/45 59/179/45
f 64/181/46 62/182/46 58/183/46
f 62/182/46 60/184/46 58/183/46
f 63/185/47 64/186/47 57/187/47
f 64/186/47 58/188/47 57/187/47
f 59/189/48 60/190/48 61/191/48
f 60/190/48 62/192/48 61/191/48
o Shape9
v 0.562500 4.937500 0.562501
v 0.562500 4.625000 0.562501
v 0.562500 4.937500 0.437501
v 0.562500 4.625000 0.437501
v 0.437500 4.937500 0.437501
v 0.437500 4.625000 0.437501
v 0.437500 4.937500 0.562501
v 0.437500 4.625000 0.562501
vt 0.546997 0.906128
vt 0.546997 0.867310
vt 0.562378 0.906128
vt 0.562378 0.867310
vt 0.578247 0.906128
vt 0.578247 0.867310
vt 0.593628 0.906128
vt 0.593628 0.867310
vt 0.578003 0.906372
vt 0.578003 0.921753
vt 0.562622 0.906372
vt 0.562622 0.921753
vt 0.593628 0.921753
vt 0.593628 0.906372
vt 0.578247 0.921753
vt 0.578247 0.906372
vt 0.593872 0.906128
vt 0.593872 0.867310
vt 0.609253 0.906128
vt 0.609253 0.867310
vt 0.562622 0.906128
vt 0.562622 0.867310
vt 0.578003 0.906128
vt 0.578003 0.867310
vn 1.0000 0.0000 0.0000
vn -1.0000 0.0000 0.0000
vn 0.0000 1.0000 0.0000
vn 0.0000 -1.0000 0.0000
vn 0.0000 -0.0000 1.0000
vn 0.0000 0.0000 -1.0000
usemtl Material
s 1
f 65/193/49 66/194/49 67/195/49
f 66/194/49 68/196/49 67/195/49
f 69/197/50 70/198/50 71/199/50
f 70/198/50 72/200/50 71/199/50
f 69/201/51 71/202/51 67/203/51
f 71/202/51 65/204/51 67/203/51
f 72/205/52 70/206/52 66/207/52
f 70/206/52 68/208/52 66/207/52
f 71/209/53 72/210/53 65/211/53
f 72/210/53 66/212/53 65/211/53
f 67/213/54 68/214/54 69/215/54
f 68/214/54 70/216/54 69/215/54
