# Blender v2.80 (sub 74) OBJ File: ''
# www.blender.org
mtllib emp_tower_static.mtl
o Base
v 1.000000 0.375000 1.000000
v 1.000000 -0.000000 1.000000
v 1.000000 0.375000 0.000000
v 1.000000 0.000000 0.000000
v 0.000000 0.375000 0.000000
v 0.000000 0.000000 0.000000
v 0.000000 0.375000 1.000000
v 0.000000 -0.000000 1.000000
vt 0.000122 0.874878
vt 0.000122 0.828247
vt 0.124878 0.874878
vt 0.124878 0.828247
vt 0.250122 0.874878
vt 0.250122 0.828247
vt 0.374878 0.874878
vt 0.374878 0.828247
vt 0.249878 0.875122
vt 0.249878 0.999878
vt 0.125122 0.875122
vt 0.125122 0.999878
vt 0.374878 0.999878
vt 0.374878 0.875122
vt 0.250122 0.999878
vt 0.250122 0.875122
vt 0.375122 0.874878
vt 0.375122 0.828247
vt 0.499878 0.874878
vt 0.499878 0.828247
vt 0.125122 0.874878
vt 0.125122 0.828247
vt 0.249878 0.874878
vt 0.249878 0.828247
vn 1.0000 0.0000 0.0000
vn -1.0000 0.0000 0.0000
vn 0.0000 1.0000 0.0000
vn 0.0000 -1.0000 -0.0000
vn 0.0000 0.0000 1.0000
vn 0.0000 0.0000 -1.0000
usemtl Material
s 1
f 1/1/1 2/2/1 3/3/1
f 2/2/1 4/4/1 3/3/1
f 5/5/2 6/6/2 7/7/2
f 6/6/2 8/8/2 7/7/2
f 5/9/3 7/10/3 3/11/3
f 7/10/3 1/12/3 3/11/3
f 8/13/4 6/14/4 2/15/4
f 6/14/4 4/16/4 2/15/4
f 7/17/5 8/18/5 1/19/5
f 8/18/5 2/20/5 1/19/5
f 3/21/6 4/22/6 5/23/6
f 4/22/6 6/24/6 5/23/6
o Support
v 0.812500 0.875000 0.812500
v 0.812500 0.375000 0.812500
v 0.812500 0.875000 0.187500
v 0.812500 0.375000 0.187500
v 0.187500 0.875000 0.187500
v 0.187500 0.375000 0.187500
v 0.187500 0.875000 0.812500
v 0.187500 0.375000 0.812500
vt 0.000122 0.734253
vt 0.000122 0.671997
vt 0.078003 0.734253
vt 0.078003 0.671997
vt 0.156372 0.734253
vt 0.156372 0.671997
vt 0.234253 0.734253
vt 0.234253 0.671997
vt 0.156128 0.734497
vt 0.156128 0.812378
vt 0.078247 0.734497
vt 0.078247 0.812378
vt 0.234253 0.812378
vt 0.234253 0.734497
vt 0.156372 0.812378
vt 0.156372 0.734497
vt 0.234497 0.734253
vt 0.234497 0.671997
vt 0.312378 0.734253
vt 0.312378 0.671997
vt 0.078247 0.734253
vt 0.078247 0.671997
vt 0.156128 0.734253
vt 0.156128 0.671997
vn 1.0000 -0.0000 0.0000
vn -1.0000 0.0000 0.0000
vn 0.0000 1.0000 0.0000
vn 0.0000 -1.0000 -0.0000
vn 0.0000 -0.0000 1.0000
vn 0.0000 0.0000 -1.0000
usemtl Material
s 1
f 9/25/7 10/26/7 11/27/7
f 10/26/7 12/28/7 11/27/7
f 13/29/8 14/30/8 15/31/8
f 14/30/8 16/32/8 15/31/8
f 13/33/9 15/34/9 11/35/9
f 15/34/9 9/36/9 11/35/9
f 16/37/10 14/38/10 10/39/10
f 14/38/10 12/40/10 10/39/10
f 15/41/11 16/42/11 9/43/11
f 16/42/11 10/44/11 9/43/11
f 11/45/12 12/46/12 13/47/12
f 12/46/12 14/48/12 13/47/12
