# Blender v2.80 (sub 74) OBJ File: ''
# www.blender.org
mtllib emp_tower_counterclockwise.mtl
o Turret_Support
v 0.937500 0.937500 0.937500
v 0.937500 0.875000 0.937500
v 0.937500 0.937500 0.062500
v 0.937500 0.875000 0.062500
v 0.062500 0.937500 0.062500
v 0.062500 0.875000 0.062500
v 0.062500 0.937500 0.937500
v 0.062500 0.875000 0.937500
vt 0.000122 0.546753
vt 0.000122 0.539185
vt 0.109253 0.546753
vt 0.109253 0.539185
vt 0.218872 0.546753
vt 0.218872 0.539185
vt 0.328003 0.546753
vt 0.328003 0.539185
vt 0.218628 0.546997
vt 0.218628 0.656128
vt 0.109497 0.546997
vt 0.109497 0.656128
vt 0.328003 0.656128
vt 0.328003 0.546997
vt 0.218872 0.656128
vt 0.218872 0.546997
vt 0.328247 0.546753
vt 0.328247 0.539185
vt 0.437378 0.546753
vt 0.437378 0.539185
vt 0.109497 0.546753
vt 0.109497 0.539185
vt 0.218628 0.546753
vt 0.218628 0.539185
vn 1.0000 0.0000 0.0000
vn -1.0000 0.0000 -0.0000
vn 0.0000 1.0000 -0.0000
vn -0.0000 -1.0000 0.0000
vn 0.0000 0.0000 1.0000
vn 0.0000 0.0000 -1.0000
usemtl Material
s 1
f 1/1/1 2/2/1 3/3/1
f 2/2/1 4/4/1 3/3/1
f 5/5/2 6/6/2 7/7/2
f 6/6/2 8/8/2 7/7/2
f 5/9/3 7/10/3 3/11/3
f 7/10/3 1/12/3 3/11/3
f 8/13/4 6/14/4 2/15/4
f 6/14/4 4/16/4 2/15/4
f 7/17/5 8/18/5 1/19/5
f 8/18/5 2/20/5 1/19/5
f 3/21/6 4/22/6 5/23/6
f 4/22/6 6/24/6 5/23/6
