# Blender v2.80 (sub 74) OBJ File: ''
# www.blender.org
mtllib launcher_platform_t3.mtl
o base_Shape13
v 0.562500 -0.037500 0.187500
v 0.562500 -0.037500 0.875000
v 0.562500 0.337500 0.875000
v 0.562500 0.337500 0.187500
v 0.937500 -0.037500 0.875000
v 0.937500 -0.037500 0.187500
v 0.937500 0.337500 0.187500
v 0.937500 0.337500 0.875000
vt 0.023438 0.640625
vt 0.066406 0.640625
vt 0.066406 0.664063
vt 0.023438 0.664063
vt 0.089844 0.640625
vt 0.132813 0.640625
vt 0.132813 0.664063
vt 0.089844 0.664063
vt 0.066406 0.687500
vt 0.023438 0.687500
vt 0.066406 0.664063
vt 0.109375 0.664063
vt 0.109375 0.687500
vt 0.066406 0.687500
vt 0.000000 0.640625
vt 0.000000 0.664063
vn -1.0000 0.0000 0.0000
vn 1.0000 0.0000 0.0000
vn 0.0000 1.0000 0.0000
vn 0.0000 -1.0000 -0.0000
vn 0.0000 0.0000 -1.0000
vn 0.0000 -0.0000 1.0000
usemtl Material.006
s 1
f 1/1/1 2/2/1 3/3/1 4/4/1
f 5/5/2 6/6/2 7/7/2 8/8/2
f 4/4/3 3/3/3 8/9/3 7/10/3
f 6/11/4 5/12/4 2/13/4 1/14/4
f 6/15/5 1/1/5 4/4/5 7/16/5
f 2/2/6 5/5/6 8/8/6 3/3/6
o Shape12.008
v 0.125000 -0.037500 0.187500
v 0.125000 -0.037500 0.875000
v 0.125000 0.337500 0.875000
v 0.125000 0.337500 0.187500
v 0.500000 -0.037500 0.875000
v 0.500000 -0.037500 0.187500
v 0.500000 0.337500 0.187500
v 0.500000 0.337500 0.875000
vt 0.023438 0.640625
vt 0.066406 0.640625
vt 0.066406 0.664063
vt 0.023438 0.664063
vt 0.089844 0.640625
vt 0.132813 0.640625
vt 0.132813 0.664063
vt 0.089844 0.664063
vt 0.066406 0.687500
vt 0.023438 0.687500
vt 0.066406 0.664063
vt 0.109375 0.664063
vt 0.109375 0.687500
vt 0.066406 0.687500
vt 0.000000 0.640625
vt 0.000000 0.664063
vn -1.0000 0.0000 0.0000
vn 1.0000 0.0000 0.0000
vn 0.0000 1.0000 0.0000
vn 0.0000 -1.0000 -0.0000
vn 0.0000 0.0000 -1.0000
vn 0.0000 -0.0000 1.0000
usemtl Material.006
s 1
f 9/17/7 10/18/7 11/19/7 12/20/7
f 13/21/8 14/22/8 15/23/8 16/24/8
f 12/20/9 11/19/9 16/25/9 15/26/9
f 14/27/10 13/28/10 10/29/10 9/30/10
f 14/31/11 9/17/11 12/20/11 15/32/11
f 10/18/12 13/21/12 16/24/12 11/19/12
o rail_Shape21
v 0.000000 -0.037500 0.062500
v -1.000000 -0.037500 0.062500
v -1.000000 0.337500 0.062500
v 0.000000 0.337500 0.062500
v -1.000000 -0.037500 0.937500
v 0.000000 -0.037500 0.937500
v 0.000000 0.337500 0.937500
v -1.000000 0.337500 0.937500
vt 0.445313 0.921875
vt 0.507813 0.921875
vt 0.507813 0.945313
vt 0.445313 0.945313
vt 0.562500 0.921875
vt 0.625000 0.921875
vt 0.625000 0.945313
vt 0.562500 0.945313
vt 0.507813 1.000000
vt 0.445313 1.000000
vt 0.507813 0.945313
vt 0.570313 0.945313
vt 0.570313 1.000000
vt 0.507813 1.000000
vt 0.390625 0.921875
vt 0.390625 0.945313
vn 0.0000 0.0000 -1.0000
vn 0.0000 -0.0000 1.0000
vn 0.0000 1.0000 0.0000
vn 0.0000 -1.0000 -0.0000
vn 1.0000 0.0000 0.0000
vn -1.0000 0.0000 0.0000
usemtl Material.006
s 1
f 17/33/13 18/34/13 19/35/13 20/36/13
f 21/37/14 22/38/14 23/39/14 24/40/14
f 20/36/15 19/35/15 24/41/15 23/42/15
f 22/43/16 21/44/16 18/45/16 17/46/16
f 22/47/17 17/33/17 20/36/17 23/48/17
f 18/34/18 21/37/18 24/40/18 19/35/18
o Shape16.008
v -0.562500 0.337500 0.125000
v -0.625000 0.337500 0.125000
v -0.625000 2.837500 0.125000
v -0.562500 2.837500 0.125000
v -0.625000 0.337500 0.250000
v -0.562500 0.337500 0.250000
v -0.562500 2.837500 0.250000
v -0.625000 2.837500 0.250000
vt 0.671875 0.640625
vt 0.675781 0.640625
vt 0.675781 0.796875
vt 0.671875 0.796875
vt 0.683594 0.640625
vt 0.687500 0.640625
vt 0.687500 0.796875
vt 0.683594 0.796875
vt 0.675781 0.804688
vt 0.671875 0.804688
vt 0.675781 0.796875
vt 0.679688 0.796875
vt 0.679688 0.804688
vt 0.675781 0.804688
vt 0.664063 0.640625
vt 0.664063 0.796875
vn 0.0000 0.0000 -1.0000
vn 0.0000 -0.0000 1.0000
vn 0.0000 1.0000 0.0000
vn 0.0000 -1.0000 -0.0000
vn 1.0000 0.0000 0.0000
vn -1.0000 0.0000 0.0000
usemtl Material.006
s 1
f 25/49/19 26/50/19 27/51/19 28/52/19
f 29/53/20 30/54/20 31/55/20 32/56/20
f 28/52/21 27/51/21 32/57/21 31/58/21
f 30/59/22 29/60/22 26/61/22 25/62/22
f 30/63/23 25/49/23 28/52/23 31/64/23
f 26/50/24 29/53/24 32/56/24 27/51/24
o Shape20.006
v -0.375000 0.337500 0.125000
v -0.437500 0.337500 0.125000
v -0.437500 2.837500 0.125000
v -0.375000 2.837500 0.125000
v -0.437500 0.337500 0.250000
v -0.375000 0.337500 0.250000
v -0.375000 2.837500 0.250000
v -0.437500 2.837500 0.250000
vt 0.671875 0.640625
vt 0.675781 0.640625
vt 0.675781 0.796875
vt 0.671875 0.796875
vt 0.683594 0.640625
vt 0.687500 0.640625
vt 0.687500 0.796875
vt 0.683594 0.796875
vt 0.675781 0.804688
vt 0.671875 0.804688
vt 0.675781 0.796875
vt 0.679688 0.796875
vt 0.679688 0.804688
vt 0.675781 0.804688
vt 0.664063 0.640625
vt 0.664063 0.796875
vn 0.0000 0.0000 -1.0000
vn 0.0000 -0.0000 1.0000
vn 0.0000 1.0000 0.0000
vn 0.0000 -1.0000 -0.0000
vn 1.0000 0.0000 0.0000
vn -1.0000 0.0000 0.0000
usemtl Material.006
s 1
f 33/65/25 34/66/25 35/67/25 36/68/25
f 37/69/26 38/70/26 39/71/26 40/72/26
f 36/68/27 35/67/27 40/73/27 39/74/27
f 38/75/28 37/76/28 34/77/28 33/78/28
f 38/79/29 33/65/29 36/68/29 39/80/29
f 34/66/30 37/69/30 40/72/30 35/67/30
o Shape9.002
v -0.187500 0.337500 0.187500
v -0.812500 0.337500 0.187500
v -0.812500 2.650000 0.187500
v -0.187500 2.650000 0.187500
v -0.812500 0.337500 0.812500
v -0.187500 0.337500 0.812500
v -0.187500 2.650000 0.812500
v -0.812500 2.650000 0.812500
vt 0.703125 0.816406
vt 0.742188 0.816406
vt 0.742188 0.960938
vt 0.703125 0.960938
vt 0.781250 0.816406
vt 0.820313 0.816406
vt 0.820313 0.960938
vt 0.781250 0.960938
vt 0.742188 1.000000
vt 0.703125 1.000000
vt 0.742188 0.960938
vt 0.781250 0.960938
vt 0.781250 1.000000
vt 0.742188 1.000000
vt 0.664063 0.816406
vt 0.664063 0.960938
vn 0.0000 0.0000 -1.0000
vn 0.0000 -0.0000 1.0000
vn 0.0000 1.0000 0.0000
vn 0.0000 -1.0000 -0.0000
vn 1.0000 0.0000 0.0000
vn -1.0000 0.0000 0.0000
usemtl Material.006
s 1
f 41/81/31 42/82/31 43/83/31 44/84/31
f 45/85/32 46/86/32 47/87/32 48/88/32
f 44/84/33 43/83/33 48/89/33 47/90/33
f 46/91/34 45/92/34 42/93/34 41/94/34
f 46/95/35 41/81/35 44/84/35 47/96/35
f 42/82/36 45/85/36 48/88/36 43/83/36
o rail.001_Shape21.001
v 1.000000 -0.005360 0.937500
v 2.000000 -0.005360 0.937500
v 2.000000 0.369640 0.937500
v 1.000000 0.369640 0.937500
v 2.000000 -0.005360 0.062500
v 1.000000 -0.005360 0.062500
v 1.000000 0.369640 0.062500
v 2.000000 0.369640 0.062500
vt 0.445313 0.921875
vt 0.507813 0.921875
vt 0.507813 0.945313
vt 0.445313 0.945313
vt 0.562500 0.921875
vt 0.625000 0.921875
vt 0.625000 0.945313
vt 0.562500 0.945313
vt 0.507813 1.000000
vt 0.445313 1.000000
vt 0.507813 0.945313
vt 0.570313 0.945313
vt 0.570313 1.000000
vt 0.507813 1.000000
vt 0.390625 0.921875
vt 0.390625 0.945313
vn 0.0000 -0.0000 1.0000
vn 0.0000 0.0000 -1.0000
vn 0.0000 1.0000 0.0000
vn 0.0000 -1.0000 -0.0000
vn -1.0000 0.0000 0.0000
vn 1.0000 0.0000 0.0000
usemtl Material.006
s 1
f 49/97/37 50/98/37 51/99/37 52/100/37
f 53/101/38 54/102/38 55/103/38 56/104/38
f 52/100/39 51/99/39 56/105/39 55/106/39
f 54/107/40 53/108/40 50/109/40 49/110/40
f 54/111/41 49/97/41 52/100/41 55/112/41
f 50/98/42 53/101/42 56/104/42 51/99/42
o Shape16.009
v 1.562500 0.369640 0.875000
v 1.625000 0.369640 0.875000
v 1.625000 2.869640 0.874999
v 1.562500 2.869640 0.875000
v 1.625000 0.369640 0.750000
v 1.562500 0.369640 0.750000
v 1.562500 2.869640 0.750000
v 1.625000 2.869640 0.749999
vt 0.671875 0.640625
vt 0.675781 0.640625
vt 0.675781 0.796875
vt 0.671875 0.796875
vt 0.683594 0.640625
vt 0.687500 0.640625
vt 0.687500 0.796875
vt 0.683594 0.796875
vt 0.675781 0.804688
vt 0.671875 0.804688
vt 0.675781 0.796875
vt 0.679688 0.796875
vt 0.679688 0.804688
vt 0.675781 0.804688
vt 0.664063 0.640625
vt 0.664063 0.796875
vn 0.0000 0.0000 1.0000
vn -0.0000 -0.0000 -1.0000
vn 0.0000 1.0000 0.0000
vn 0.0000 -1.0000 -0.0000
vn -1.0000 0.0000 0.0000
vn 1.0000 0.0000 0.0000
usemtl Material.006
s 1
f 57/113/43 58/114/43 59/115/43 60/116/43
f 61/117/44 62/118/44 63/119/44 64/120/44
f 60/116/45 59/115/45 64/121/45 63/122/45
f 62/123/46 61/124/46 58/125/46 57/126/46
f 62/127/47 57/113/47 60/116/47 63/128/47
f 58/114/48 61/117/48 64/120/48 59/115/48
o Shape20.007
v 1.375000 0.369640 0.875000
v 1.437500 0.369640 0.875000
v 1.437500 2.869640 0.875000
v 1.375000 2.869640 0.875000
v 1.437500 0.369640 0.750000
v 1.375000 0.369640 0.750000
v 1.375000 2.869640 0.750000
v 1.437500 2.869640 0.750000
vt 0.671875 0.640625
vt 0.675781 0.640625
vt 0.675781 0.796875
vt 0.671875 0.796875
vt 0.683594 0.640625
vt 0.687500 0.640625
vt 0.687500 0.796875
vt 0.683594 0.796875
vt 0.675781 0.804688
vt 0.671875 0.804688
vt 0.675781 0.796875
vt 0.679688 0.796875
vt 0.679688 0.804688
vt 0.675781 0.804688
vt 0.664063 0.640625
vt 0.664063 0.796875
vn 0.0000 -0.0000 1.0000
vn 0.0000 0.0000 -1.0000
vn 0.0000 1.0000 0.0000
vn 0.0000 -1.0000 -0.0000
vn -1.0000 0.0000 0.0000
vn 1.0000 0.0000 0.0000
usemtl Material.006
s 1
f 65/129/49 66/130/49 67/131/49 68/132/49
f 69/133/50 70/134/50 71/135/50 72/136/50
f 68/132/51 67/131/51 72/137/51 71/138/51
f 70/139/52 69/140/52 66/141/52 65/142/52
f 70/143/53 65/129/53 68/132/53 71/144/53
f 66/130/54 69/133/54 72/136/54 67/131/54
o Shape9.003
v 1.187500 0.369640 0.812500
v 1.812500 0.369640 0.812500
v 1.812500 2.682140 0.812499
v 1.187500 2.682140 0.812500
v 1.812500 0.369640 0.187500
v 1.187500 0.369640 0.187500
v 1.187500 2.682140 0.187500
v 1.812500 2.682140 0.187499
vt 0.703125 0.816406
vt 0.742188 0.816406
vt 0.742188 0.960938
vt 0.703125 0.960938
vt 0.781250 0.816406
vt 0.820313 0.816406
vt 0.820313 0.960938
vt 0.781250 0.960938
vt 0.742188 1.000000
vt 0.703125 1.000000
vt 0.742188 0.960938
vt 0.781250 0.960938
vt 0.781250 1.000000
vt 0.742188 1.000000
vt 0.664063 0.816406
vt 0.664063 0.960938
vn 0.0000 0.0000 1.0000
vn -0.0000 -0.0000 -1.0000
vn 0.0000 1.0000 0.0000
vn 0.0000 -1.0000 -0.0000
vn -1.0000 0.0000 0.0000
vn 1.0000 0.0000 0.0000
usemtl Material.006
s 1
f 73/145/55 74/146/55 75/147/55 76/148/55
f 77/149/56 78/150/56 79/151/56 80/152/56
f 76/148/57 75/147/57 80/153/57 79/154/57
f 78/155/58 77/156/58 74/157/58 73/158/58
f 78/159/59 73/145/59 76/148/59 79/160/59
f 74/146/60 77/149/60 80/152/60 75/147/60
