# Blender v2.80 (sub 74) OBJ File: ''
# www.blender.org
mtllib launcher_control_panel_t3.mtl
o Stand
v 0.750000 0.562500 0.562500
v 0.750000 -0.000000 0.562500
v 0.750000 0.562500 0.375000
v 0.750000 0.000000 0.375000
v 0.250000 0.562500 0.375000
v 0.250000 0.000000 0.375000
v 0.250000 0.562500 0.562500
v 0.250000 -0.000000 0.562500
vt 0.054626 0.871033
vt 0.054626 0.835999
vt 0.043030 0.871033
vt 0.043030 0.835999
vt 0.011658 0.871033
vt 0.011658 0.835999
vt 0.000061 0.871033
vt 0.000061 0.835999
vt 0.011780 0.871155
vt 0.011780 0.882751
vt 0.042908 0.871155
vt 0.042908 0.882751
vt 0.043030 0.882751
vt 0.043030 0.871155
vt 0.074158 0.882751
vt 0.074158 0.871155
vt 0.085876 0.871033
vt 0.085876 0.835999
vt 0.054749 0.871033
vt 0.054749 0.835999
vt 0.042908 0.871033
vt 0.042908 0.835999
vt 0.011780 0.871033
vt 0.011780 0.835999
vn 1.0000 0.0000 0.0000
vn -1.0000 0.0000 0.0000
vn 0.0000 1.0000 0.0000
vn 0.0000 -1.0000 -0.0000
vn 0.0000 -0.0000 1.0000
vn 0.0000 0.0000 -1.0000
usemtl Material
s 1
f 1/1/1 2/2/1 3/3/1
f 2/2/1 4/4/1 3/3/1
f 5/5/2 6/6/2 7/7/2
f 6/6/2 8/8/2 7/7/2
f 5/9/3 7/10/3 3/11/3
f 7/10/3 1/12/3 3/11/3
f 8/13/4 6/14/4 2/15/4
f 6/14/4 4/16/4 2/15/4
f 7/17/5 8/18/5 1/19/5
f 8/18/5 2/20/5 1/19/5
f 3/21/6 4/22/6 5/23/6
f 4/22/6 6/24/6 5/23/6
o Keyboard
v 0.812500 0.654509 0.600528
v 0.812500 0.595068 0.619842
v 0.812500 0.500000 0.125000
v 0.812500 0.440559 0.144314
v 0.187500 0.500000 0.125000
v 0.187500 0.440559 0.144314
v 0.187500 0.654509 0.600528
v 0.187500 0.595068 0.619842
vt 0.101501 0.894470
vt 0.101501 0.890686
vt 0.070374 0.894470
vt 0.070374 0.890686
vt 0.031189 0.894470
vt 0.031189 0.890686
vt 0.000061 0.894470
vt 0.000061 0.890686
vt 0.031311 0.894592
vt 0.031311 0.925720
vt 0.070251 0.894592
vt 0.070251 0.925720
vt 0.070374 0.925720
vt 0.070374 0.894592
vt 0.109314 0.925720
vt 0.109314 0.894592
vt 0.140564 0.894470
vt 0.140564 0.890686
vt 0.101624 0.894470
vt 0.101624 0.890686
vt 0.070251 0.894470
vt 0.070251 0.890686
vt 0.031311 0.894470
vt 0.031311 0.890686
vn 1.0000 -0.0000 0.0000
vn -1.0000 0.0000 0.0000
vn 0.0000 0.9511 -0.3090
vn 0.0000 -0.9511 0.3090
vn 0.0000 0.3090 0.9511
vn 0.0000 -0.3090 -0.9511
usemtl Material
s 1
f 9/25/7 10/26/7 11/27/7
f 10/26/7 12/28/7 11/27/7
f 13/29/8 14/30/8 15/31/8
f 14/30/8 16/32/8 15/31/8
f 13/33/9 15/34/9 11/35/9
f 15/34/9 9/36/9 11/35/9
f 16/37/10 14/38/10 10/39/10
f 14/38/10 12/40/10 10/39/10
f 15/41/11 16/42/11 9/43/11
f 16/42/11 10/44/11 9/43/11
f 11/45/12 12/46/12 13/47/12
f 12/46/12 14/48/12 13/47/12
o Screen
v 0.812500 1.098586 0.869144
v 0.812500 0.645432 0.657835
v 0.812500 1.125000 0.812500
v 0.812500 0.671846 0.601191
v 0.187500 1.125000 0.812500
v 0.187500 0.671846 0.601191
v 0.187500 1.098586 0.869144
v 0.187500 0.645432 0.657835
vt 0.046814 0.996033
vt 0.046814 0.964905
vt 0.043030 0.996033
vt 0.043030 0.964905
vt 0.003845 0.996033
vt 0.003845 0.964905
vt 0.000061 0.996033
vt 0.000061 0.964905
vt 0.003967 0.996155
vt 0.003967 0.999939
vt 0.042908 0.996155
vt 0.042908 0.999939
vt 0.043030 0.999939
vt 0.043030 0.996155
vt 0.081970 0.999939
vt 0.081970 0.996155
vt 0.085876 0.996033
vt 0.085876 0.964905
vt 0.046936 0.996033
vt 0.046936 0.964905
vt 0.042908 0.996033
vt 0.042908 0.964905
vt 0.003967 0.996033
vt 0.003967 0.964905
vn 1.0000 0.0000 0.0000
vn -1.0000 0.0000 0.0000
vn 0.0000 0.9063 0.4226
vn 0.0000 -0.9063 -0.4226
vn 0.0000 -0.4226 0.9063
vn 0.0000 0.4226 -0.9063
usemtl Material
s 1
f 17/49/13 18/50/13 19/51/13
f 18/50/13 20/52/13 19/51/13
f 21/53/14 22/54/14 23/55/14
f 22/54/14 24/56/14 23/55/14
f 21/57/15 23/58/15 19/59/15
f 23/58/15 17/60/15 19/59/15
f 24/61/16 22/62/16 18/63/16
f 22/62/16 20/64/16 18/63/16
f 23/65/17 24/66/17 17/67/17
f 24/66/17 18/68/17 17/67/17
f 19/69/18 20/70/18 21/71/18
f 20/70/18 22/72/18 21/71/18
o ScreenSupport
v 0.562500 0.848586 0.806644
v 0.562500 0.282144 0.542508
v 0.562500 0.875000 0.750000
v 0.562500 0.308558 0.485864
v 0.437500 0.875000 0.750000
v 0.437500 0.308558 0.485864
v 0.437500 0.848586 0.806644
v 0.437500 0.282144 0.542508
vt 0.113220 0.996033
vt 0.113220 0.957092
vt 0.109436 0.996033
vt 0.109436 0.957092
vt 0.101501 0.996033
vt 0.101501 0.957092
vt 0.097717 0.996033
vt 0.097717 0.957092
vt 0.101624 0.996155
vt 0.101624 0.999939
vt 0.109314 0.996155
vt 0.109314 0.999939
vt 0.109436 0.999939
vt 0.109436 0.996155
vt 0.117126 0.999939
vt 0.117126 0.996155
vt 0.121033 0.996033
vt 0.121033 0.957092
vt 0.113342 0.996033
vt 0.113342 0.957092
vt 0.109314 0.996033
vt 0.109314 0.957092
vt 0.101624 0.996033
vt 0.101624 0.957092
vn 1.0000 0.0000 0.0000
vn -1.0000 0.0000 0.0000
vn 0.0000 0.9063 0.4226
vn 0.0000 -0.9063 -0.4226
vn 0.0000 -0.4226 0.9063
vn 0.0000 0.4226 -0.9063
usemtl Material
s 1
f 25/73/19 26/74/19 27/75/19
f 26/74/19 28/76/19 27/75/19
f 29/77/20 30/78/20 31/79/20
f 30/78/20 32/80/20 31/79/20
f 29/81/21 31/82/21 27/83/21
f 31/82/21 25/84/21 27/83/21
f 32/85/22 30/86/22 26/87/22
f 30/86/22 28/88/22 26/87/22
f 31/89/23 32/90/23 25/91/23
f 32/90/23 26/92/23 25/91/23
f 27/93/24 28/94/24 29/95/24
f 28/94/24 30/96/24 29/95/24
