# Blender v2.80 (sub 74) OBJ File: ''
# www.blender.org
mtllib launcher_control_panel_t2.mtl
o Stand
v 0.562500 0.500000 0.562500
v 0.562500 -0.000000 0.562500
v 0.562500 0.500000 0.500000
v 0.562500 0.000000 0.500000
v 0.437500 0.500000 0.500000
v 0.437500 0.000000 0.500000
v 0.437500 0.500000 0.562500
v 0.437500 -0.000000 0.562500
vt 0.031128 0.718628
vt 0.031128 0.656372
vt 0.023560 0.718628
vt 0.023560 0.656372
vt 0.007690 0.718628
vt 0.007690 0.656372
vt 0.000122 0.718628
vt 0.000122 0.656372
vt 0.007935 0.718872
vt 0.007935 0.726440
vt 0.023315 0.718872
vt 0.023315 0.726440
vt 0.023560 0.726440
vt 0.023560 0.718872
vt 0.038940 0.726440
vt 0.038940 0.718872
vt 0.046753 0.718628
vt 0.046753 0.656372
vt 0.031372 0.718628
vt 0.031372 0.656372
vt 0.023315 0.718628
vt 0.023315 0.656372
vt 0.007935 0.718628
vt 0.007935 0.656372
vn 1.0000 0.0000 0.0000
vn -1.0000 0.0000 0.0000
vn 0.0000 1.0000 0.0000
vn 0.0000 -1.0000 -0.0000
vn 0.0000 -0.0000 1.0000
vn 0.0000 0.0000 -1.0000
usemtl Material
s 1
f 1/1/1 2/2/1 3/3/1
f 2/2/1 4/4/1 3/3/1
f 5/5/2 6/6/2 7/7/2
f 6/6/2 8/8/2 7/7/2
f 5/9/3 7/10/3 3/11/3
f 7/10/3 1/12/3 3/11/3
f 8/13/4 6/14/4 2/15/4
f 6/14/4 4/16/4 2/15/4
f 7/17/5 8/18/5 1/19/5
f 8/18/5 2/20/5 1/19/5
f 3/21/6 4/22/6 5/23/6
f 4/22/6 6/24/6 5/23/6
o Screen
v 0.812500 0.593750 0.645633
v 0.812500 0.539623 0.676883
v 0.812500 0.437500 0.375000
v 0.812500 0.383373 0.406250
v 0.187500 0.437500 0.375000
v 0.187500 0.383373 0.406250
v 0.187500 0.593750 0.645633
v 0.187500 0.539623 0.676883
vt 0.273315 0.726440
vt 0.273315 0.718872
vt 0.234497 0.726440
vt 0.234497 0.718872
vt 0.156128 0.726440
vt 0.156128 0.718872
vt 0.117310 0.726440
vt 0.117310 0.718872
vt 0.156372 0.726685
vt 0.156372 0.765503
vt 0.234253 0.726685
vt 0.234253 0.765503
vt 0.234497 0.765503
vt 0.234497 0.726685
vt 0.312378 0.765503
vt 0.312378 0.726685
vt 0.351440 0.726440
vt 0.351440 0.718872
vt 0.273560 0.726440
vt 0.273560 0.718872
vt 0.234253 0.726440
vt 0.234253 0.718872
vt 0.156372 0.726440
vt 0.156372 0.718872
vn 1.0000 0.0000 0.0000
vn -1.0000 0.0000 0.0000
vn 0.0000 0.8660 -0.5000
vn 0.0000 -0.8660 0.5000
vn 0.0000 0.5000 0.8660
vn 0.0000 -0.5000 -0.8660
usemtl Material
s 1
f 9/25/7 10/26/7 11/27/7
f 10/26/7 12/28/7 11/27/7
f 13/29/8 14/30/8 15/31/8
f 14/30/8 16/32/8 15/31/8
f 13/33/9 15/34/9 11/35/9
f 15/34/9 9/36/9 11/35/9
f 16/37/10 14/38/10 10/39/10
f 14/38/10 12/40/10 10/39/10
f 15/41/11 16/42/11 9/43/11
f 16/42/11 10/44/11 9/43/11
f 11/45/12 12/46/12 13/47/12
f 12/46/12 14/48/12 13/47/12
