# Blender v2.80 (sub 74) OBJ File: ''
# www.blender.org
mtllib launcher_support_frame_t2.mtl
o Shape18
v 1.000000 0.375000 0.750000
v 1.000000 -0.000000 0.750000
v 1.000000 0.375000 0.250000
v 1.000000 0.000000 0.250000
v 0.000000 0.375000 0.250000
v 0.000000 0.000000 0.250000
v 0.000000 0.375000 0.750000
v 0.000000 -0.000000 0.750000
vt 0.757690 0.429565
vt 0.757690 0.382935
vt 0.632935 0.429565
vt 0.632935 0.382935
vt 0.507690 0.429565
vt 0.507690 0.382935
vt 0.445435 0.429565
vt 0.445435 0.382935
vt 0.507935 0.429810
vt 0.507935 0.492065
vt 0.632690 0.429810
vt 0.632690 0.492065
vt 0.632935 0.492065
vt 0.632935 0.429810
vt 0.757690 0.492065
vt 0.757690 0.429810
vt 0.820190 0.429565
vt 0.820190 0.382935
vt 0.757935 0.429565
vt 0.757935 0.382935
vt 0.632690 0.429565
vt 0.632690 0.382935
vt 0.507935 0.429565
vt 0.507935 0.382935
vn 1.0000 0.0000 0.0000
vn -1.0000 0.0000 0.0000
vn 0.0000 1.0000 0.0000
vn 0.0000 -1.0000 -0.0000
vn 0.0000 -0.0000 1.0000
vn 0.0000 0.0000 -1.0000
usemtl Material
s 1
f 1/1/1 2/2/1 3/3/1
f 2/2/1 4/4/1 3/3/1
f 5/5/2 6/6/2 7/7/2
f 6/6/2 8/8/2 7/7/2
f 5/9/3 7/10/3 3/11/3
f 7/10/3 1/12/3 3/11/3
f 8/13/4 6/14/4 2/15/4
f 6/14/4 4/16/4 2/15/4
f 7/17/5 8/18/5 1/19/5
f 8/18/5 2/20/5 1/19/5
f 3/21/6 4/22/6 5/23/6
f 4/22/6 6/24/6 5/23/6
o Shape19
v 0.750000 3.500000 0.750001
v 0.750000 0.375000 0.750000
v 0.750000 3.500000 0.250001
v 0.750000 0.375000 0.250000
v 0.250000 3.500000 0.250001
v 0.250000 0.375000 0.250000
v 0.250000 3.500000 0.750001
v 0.250000 0.375000 0.750000
vt 0.187378 0.531128
vt 0.187378 0.140747
vt 0.125122 0.531128
vt 0.125122 0.140747
vt 0.062378 0.531128
vt 0.062378 0.140747
vt 0.000122 0.531128
vt 0.000122 0.140747
vt 0.062622 0.531372
vt 0.062622 0.593628
vt 0.124878 0.531372
vt 0.124878 0.593628
vt 0.125122 0.593628
vt 0.125122 0.531372
vt 0.187378 0.593628
vt 0.187378 0.531372
vt 0.249878 0.531128
vt 0.249878 0.140747
vt 0.187622 0.531128
vt 0.187622 0.140747
vt 0.124878 0.531128
vt 0.124878 0.140747
vt 0.062622 0.531128
vt 0.062622 0.140747
vn 1.0000 0.0000 0.0000
vn -1.0000 -0.0000 0.0000
vn 0.0000 1.0000 0.0000
vn 0.0000 -1.0000 -0.0000
vn 0.0000 -0.0000 1.0000
vn 0.0000 0.0000 -1.0000
usemtl Material
s 1
f 9/25/7 10/26/7 11/27/7
f 10/26/7 12/28/7 11/27/7
f 13/29/8 14/30/8 15/31/8
f 14/30/8 16/32/8 15/31/8
f 13/33/9 15/34/9 11/35/9
f 15/34/9 9/36/9 11/35/9
f 16/37/10 14/38/10 10/39/10
f 14/38/10 12/40/10 10/39/10
f 15/41/11 16/42/11 9/43/11
f 16/42/11 10/44/11 9/43/11
f 11/45/12 12/46/12 13/47/12
f 12/46/12 14/48/12 13/47/12
