# Blender v2.80 (sub 74) OBJ File: ''
# www.blender.org
mtllib launcher_platform_t1.mtl
o InnerSupportLeft_Shape13.014
v 0.875000 0.062500 0.437500
v 0.875000 0.812500 0.437500
v 1.000000 0.812500 0.437500
v 1.000000 0.062500 0.562500
v 1.000000 0.812500 0.562500
v 0.875000 0.812500 0.562500
v 0.875000 0.062500 0.562500
v 1.000000 0.062500 0.437500
vt 0.031250 0.734375
vt 0.031250 0.828125
vt 0.015625 0.828125
vt 0.062500 0.734375
vt 0.062500 0.828125
vt 0.046875 0.828125
vt 0.031250 0.843750
vt 0.015625 0.843750
vt 0.046875 0.828125
vt 0.046875 0.843750
vt 0.031250 0.843750
vt 0.000000 0.734375
vt 0.015625 0.734375
vt 0.046875 0.734375
vt 0.031250 0.828125
vt 0.000000 0.828125
vn 0.0000 0.0000 -1.0000
vn 0.0000 -0.0000 1.0000
vn 0.0000 1.0000 0.0000
vn 0.0000 -1.0000 -0.0000
vn 1.0000 0.0000 0.0000
vn -1.0000 0.0000 0.0000
usemtl Material
s 1
f 1/1/1 2/2/1 3/3/1
f 4/4/2 5/5/2 6/6/2
f 2/2/3 6/7/3 5/8/3
f 7/9/4 1/10/4 8/11/4
f 4/12/5 8/13/5 3/3/5
f 7/14/6 6/6/6 2/2/6
f 8/13/1 1/1/1 3/3/1
f 7/14/2 4/4/2 6/6/2
f 3/3/3 2/2/3 5/8/3
f 4/15/4 7/9/4 8/11/4
f 5/16/5 4/12/5 3/3/5
f 1/1/6 7/14/6 2/2/6
o BaseCenterBottom_Shape1.004
v 0.000000 0.000000 0.000000
v 0.000000 0.062500 0.000000
v 1.000000 0.062500 0.000000
v 1.000000 -0.000000 1.000000
v 1.000000 0.062500 1.000000
v 0.000000 0.062500 1.000000
v 0.000000 -0.000000 1.000000
v 1.000000 0.000000 0.000000
vt 0.250000 0.000000
vt 0.250000 0.007813
vt 0.125000 0.007813
vt 0.500000 0.000000
vt 0.500000 0.007813
vt 0.375000 0.007813
vt 0.250000 0.132813
vt 0.125000 0.132813
vt 0.375000 0.007813
vt 0.375000 0.132813
vt 0.250000 0.132813
vt 0.125000 0.000000
vt 0.000000 0.007813
vt 0.375000 0.000000
vt 0.250000 0.007813
vt 0.000000 0.000000
vn 0.0000 0.0000 -1.0000
vn 0.0000 0.0000 1.0000
vn 0.0000 1.0000 0.0000
vn 0.0000 -1.0000 -0.0000
vn 1.0000 0.0000 0.0000
vn -1.0000 0.0000 0.0000
usemtl Material
s 1
f 9/17/7 10/18/7 11/19/7
f 12/20/8 13/21/8 14/22/8
f 10/18/9 14/23/9 13/24/9
f 15/25/10 9/26/10 16/27/10
f 16/28/11 11/19/11 13/29/11
f 15/30/12 14/22/12 10/18/12
f 16/28/7 9/17/7 11/19/7
f 15/30/8 12/20/8 14/22/8
f 11/19/9 10/18/9 13/24/9
f 12/31/10 15/25/10 16/27/10
f 12/32/11 16/28/11 13/29/11
f 9/17/12 15/30/12 10/18/12
o BaseCenterTop_Shape6.007
v 0.000000 0.250000 0.000000
v 0.000000 0.312500 0.000000
v 1.000000 0.312500 0.000000
v 1.000000 0.250000 1.000000
v 1.000000 0.312500 1.000000
v 0.000000 0.312500 1.000000
v 0.000000 0.250000 1.000000
v 1.000000 0.250000 0.000000
vt 0.250000 0.000000
vt 0.250000 0.007813
vt 0.125000 0.007813
vt 0.500000 0.000000
vt 0.500000 0.007813
vt 0.375000 0.007813
vt 0.250000 0.132813
vt 0.125000 0.132813
vt 0.375000 0.007813
vt 0.375000 0.132813
vt 0.250000 0.132813
vt 0.125000 0.000000
vt 0.000000 0.007813
vt 0.375000 0.000000
vt 0.250000 0.007813
vt 0.000000 0.000000
vn 0.0000 0.0000 -1.0000
vn 0.0000 0.0000 1.0000
vn 0.0000 1.0000 0.0000
vn 0.0000 -1.0000 -0.0000
vn 1.0000 0.0000 0.0000
vn -1.0000 0.0000 0.0000
usemtl Material
s 1
f 17/33/13 18/34/13 19/35/13
f 20/36/14 21/37/14 22/38/14
f 18/34/15 22/39/15 21/40/15
f 23/41/16 17/42/16 24/43/16
f 24/44/17 19/35/17 21/45/17
f 23/46/18 22/38/18 18/34/18
f 24/44/13 17/33/13 19/35/13
f 23/46/14 20/36/14 22/38/14
f 19/35/15 18/34/15 21/40/15
f 20/47/16 23/41/16 24/43/16
f 20/48/17 24/44/17 21/45/17
f 17/33/18 23/46/18 18/34/18
o MainSupportLeft_Shape11.010
v 1.000000 0.437500 0.375000
v 1.000000 3.000000 0.375000
v 1.062500 3.000000 0.375000
v 1.062500 0.437500 0.625000
v 1.062500 3.000000 0.625000
v 1.000000 3.000000 0.625000
v 1.000000 0.437500 0.625000
v 1.062500 0.437500 0.375000
vt 0.312500 0.242188
vt 0.312500 0.562500
vt 0.304688 0.562500
vt 0.351563 0.242188
vt 0.351563 0.562500
vt 0.343750 0.562500
vt 0.312500 0.593750
vt 0.304688 0.593750
vt 0.320313 0.562500
vt 0.320313 0.593750
vt 0.312500 0.593750
vt 0.304688 0.242188
vt 0.273438 0.562500
vt 0.343750 0.242188
vt 0.312500 0.562500
vt 0.273438 0.242188
vn 0.0000 0.0000 -1.0000
vn 0.0000 -0.0000 1.0000
vn 0.0000 1.0000 0.0000
vn 0.0000 -1.0000 -0.0000
vn 1.0000 0.0000 0.0000
vn -1.0000 0.0000 0.0000
usemtl Material
s 1
f 25/49/19 26/50/19 27/51/19
f 28/52/20 29/53/20 30/54/20
f 26/50/21 30/55/21 29/56/21
f 31/57/22 25/58/22 32/59/22
f 32/60/23 27/51/23 29/61/23
f 31/62/24 30/54/24 26/50/24
f 32/60/19 25/49/19 27/51/19
f 31/62/20 28/52/20 30/54/20
f 27/51/21 26/50/21 29/56/21
f 28/63/22 31/57/22 32/59/22
f 28/64/23 32/60/23 29/61/23
f 25/49/24 31/62/24 26/50/24
o OuterBoxLeft_Shape16.014
v 1.000000 0.062500 0.312500
v 1.000000 0.437500 0.312500
v 1.562500 0.437500 0.312500
v 1.562500 0.062500 0.687500
v 1.562500 0.437500 0.687500
v 1.000000 0.437500 0.687500
v 1.000000 0.062500 0.687500
v 1.562500 0.062500 0.312500
vt 0.562500 0.500000
vt 0.562500 0.546875
vt 0.492188 0.546875
vt 0.679688 0.500000
vt 0.679688 0.546875
vt 0.609375 0.546875
vt 0.562500 0.593750
vt 0.492188 0.593750
vt 0.632813 0.546875
vt 0.632813 0.593750
vt 0.562500 0.593750
vt 0.492188 0.500000
vt 0.445313 0.546875
vt 0.609375 0.500000
vt 0.562500 0.546875
vt 0.445313 0.500000
vn 0.0000 0.0000 -1.0000
vn 0.0000 -0.0000 1.0000
vn 0.0000 1.0000 0.0000
vn 0.0000 -1.0000 -0.0000
vn 1.0000 0.0000 0.0000
vn -1.0000 0.0000 0.0000
usemtl Material
s 1
f 33/65/25 34/66/25 35/67/25
f 36/68/26 37/69/26 38/70/26
f 34/66/27 38/71/27 37/72/27
f 39/73/28 33/74/28 40/75/28
f 40/76/29 35/67/29 37/77/29
f 39/78/30 38/70/30 34/66/30
f 40/76/25 33/65/25 35/67/25
f 39/78/26 36/68/26 38/70/26
f 35/67/27 34/66/27 37/72/27
f 36/79/28 39/73/28 40/75/28
f 36/80/29 40/76/29 37/77/29
f 33/65/30 39/78/30 34/66/30
o OuterBoxRight_Shape17.004
v -0.562500 0.062500 0.312500
v -0.562500 0.437500 0.312500
v 0.000000 0.437500 0.312500
v 0.000000 0.062500 0.687500
v 0.000000 0.437500 0.687500
v -0.562500 0.437500 0.687500
v -0.562500 0.062500 0.687500
v 0.000000 0.062500 0.312500
vt 0.562500 0.500000
vt 0.562500 0.546875
vt 0.492188 0.546875
vt 0.679688 0.500000
vt 0.679688 0.546875
vt 0.609375 0.546875
vt 0.562500 0.593750
vt 0.492188 0.593750
vt 0.632813 0.546875
vt 0.632813 0.593750
vt 0.562500 0.593750
vt 0.492188 0.500000
vt 0.445313 0.546875
vt 0.609375 0.500000
vt 0.562500 0.546875
vt 0.445313 0.500000
vn 0.0000 0.0000 -1.0000
vn 0.0000 -0.0000 1.0000
vn 0.0000 1.0000 0.0000
vn 0.0000 -1.0000 -0.0000
vn 1.0000 0.0000 0.0000
vn -1.0000 0.0000 0.0000
usemtl Material
s 1
f 41/81/31 42/82/31 43/83/31
f 44/84/32 45/85/32 46/86/32
f 42/82/33 46/87/33 45/88/33
f 47/89/34 41/90/34 48/91/34
f 48/92/35 43/83/35 45/93/35
f 47/94/36 46/86/36 42/82/36
f 48/92/31 41/81/31 43/83/31
f 47/94/32 44/84/32 46/86/32
f 43/83/33 42/82/33 45/88/33
f 44/95/34 47/89/34 48/91/34
f 44/96/35 48/92/35 45/93/35
f 41/81/36 47/94/36 42/82/36
o TipRight_Shape10.004
v -0.062500 3.000000 0.437500
v -0.062500 3.250000 0.437504
v 0.062500 3.250000 0.437504
v 0.062500 3.000000 0.562500
v 0.062500 3.250000 0.562504
v -0.062500 3.250000 0.562504
v -0.062500 3.000000 0.562500
v 0.062500 3.000000 0.437500
vt 0.031250 0.875000
vt 0.031250 0.906250
vt 0.015625 0.906250
vt 0.062500 0.875000
vt 0.062500 0.906250
vt 0.046875 0.906250
vt 0.031250 0.921875
vt 0.015625 0.921875
vt 0.046875 0.906250
vt 0.046875 0.921875
vt 0.031250 0.921875
vt 0.000000 0.875000
vt 0.015625 0.875000
vt 0.046875 0.875000
vt 0.031250 0.906250
vt 0.000000 0.906250
vn 0.0000 0.0000 -1.0000
vn 0.0000 -0.0000 1.0000
vn 0.0000 1.0000 0.0000
vn 0.0000 -1.0000 0.0000
vn 1.0000 0.0000 0.0000
vn -1.0000 0.0000 0.0000
usemtl Material
s 1
f 49/97/37 50/98/37 51/99/37
f 52/100/38 53/101/38 54/102/38
f 50/98/39 54/103/39 53/104/39
f 55/105/40 49/106/40 56/107/40
f 52/108/41 56/109/41 51/99/41
f 55/110/42 54/102/42 50/98/42
f 56/109/37 49/97/37 51/99/37
f 55/110/38 52/100/38 54/102/38
f 51/99/39 50/98/39 53/104/39
f 52/111/40 55/105/40 56/107/40
f 53/112/41 52/108/41 51/99/41
f 49/97/42 55/110/42 50/98/42
o OuterSupportLeft_Shape12.012
v 1.062500 0.437500 0.437500
v 1.062500 1.625000 0.437500
v 1.250000 1.625000 0.437500
v 1.250000 0.437500 0.562500
v 1.250000 1.625000 0.562500
v 1.062500 1.625000 0.562500
v 1.062500 0.437500 0.562500
v 1.250000 0.437500 0.437500
vt 0.398438 0.429688
vt 0.398438 0.578125
vt 0.375000 0.578125
vt 0.437500 0.429688
vt 0.437500 0.578125
vt 0.414063 0.578125
vt 0.398438 0.593750
vt 0.375000 0.593750
vt 0.421875 0.578125
vt 0.421875 0.593750
vt 0.398438 0.593750
vt 0.375000 0.429688
vt 0.359375 0.578125
vt 0.414063 0.429688
vt 0.398438 0.578125
vt 0.359375 0.429688
vn 0.0000 0.0000 -1.0000
vn 0.0000 -0.0000 1.0000
vn 0.0000 1.0000 0.0000
vn 0.0000 -1.0000 0.0000
vn 1.0000 0.0000 0.0000
vn -1.0000 0.0000 0.0000
usemtl Material
s 1
f 57/113/43 58/114/43 59/115/43
f 60/116/44 61/117/44 62/118/44
f 58/114/45 62/119/45 61/120/45
f 63/121/46 57/122/46 64/123/46
f 64/124/47 59/115/47 61/125/47
f 63/126/48 62/118/48 58/114/48
f 64/124/43 57/113/43 59/115/43
f 63/126/44 60/116/44 62/118/44
f 59/115/45 58/114/45 61/120/45
f 60/127/46 63/121/46 64/123/46
f 60/128/47 64/124/47 61/125/47
f 57/113/48 63/126/48 58/114/48
o TipLeft_Shape14.010
v 0.937500 3.000000 0.437500
v 0.937500 3.250000 0.437504
v 1.062500 3.250000 0.437504
v 1.062500 3.000000 0.562500
v 1.062500 3.250000 0.562504
v 0.937500 3.250000 0.562504
v 0.937500 3.000000 0.562500
v 1.062500 3.000000 0.437500
vt 0.031250 0.875000
vt 0.031250 0.906250
vt 0.015625 0.906250
vt 0.062500 0.875000
vt 0.062500 0.906250
vt 0.046875 0.906250
vt 0.031250 0.921875
vt 0.015625 0.921875
vt 0.046875 0.906250
vt 0.046875 0.921875
vt 0.031250 0.921875
vt 0.000000 0.875000
vt 0.015625 0.875000
vt 0.046875 0.875000
vt 0.031250 0.906250
vt 0.000000 0.906250
vn 0.0000 0.0000 -1.0000
vn 0.0000 -0.0000 1.0000
vn 0.0000 1.0000 0.0000
vn 0.0000 -1.0000 0.0000
vn 1.0000 0.0000 0.0000
vn -1.0000 0.0000 0.0000
usemtl Material
s 1
f 65/129/49 66/130/49 67/131/49
f 68/132/50 69/133/50 70/134/50
f 66/130/51 70/135/51 69/136/51
f 71/137/52 65/138/52 72/139/52
f 68/140/53 72/141/53 67/131/53
f 71/142/54 70/134/54 66/130/54
f 72/141/49 65/129/49 67/131/49
f 71/142/50 68/132/50 70/134/50
f 67/131/51 66/130/51 69/136/51
f 68/143/52 71/137/52 72/139/52
f 69/144/53 68/140/53 67/131/53
f 65/129/54 71/142/54 66/130/54
o InnerSupportRight_Shape8.009
v 0.000000 0.062500 0.437500
v 0.000000 0.812500 0.437500
v 0.125000 0.812500 0.437500
v 0.125000 0.062500 0.562500
v 0.125000 0.812500 0.562500
v 0.000000 0.812500 0.562500
v 0.000000 0.062500 0.562500
v 0.125000 0.062500 0.437500
vt 0.031250 0.734375
vt 0.031250 0.828125
vt 0.015625 0.828125
vt 0.062500 0.734375
vt 0.062500 0.828125
vt 0.046875 0.828125
vt 0.031250 0.843750
vt 0.015625 0.843750
vt 0.046875 0.828125
vt 0.046875 0.843750
vt 0.031250 0.843750
vt 0.000000 0.734375
vt 0.015625 0.734375
vt 0.046875 0.734375
vt 0.031250 0.828125
vt 0.000000 0.828125
vn 0.0000 0.0000 -1.0000
vn 0.0000 -0.0000 1.0000
vn 0.0000 1.0000 0.0000
vn 0.0000 -1.0000 -0.0000
vn 1.0000 0.0000 0.0000
vn -1.0000 0.0000 0.0000
usemtl Material
s 1
f 73/145/55 74/146/55 75/147/55
f 76/148/56 77/149/56 78/150/56
f 74/146/57 78/151/57 77/152/57
f 79/153/58 73/154/58 80/155/58
f 76/156/59 80/157/59 75/147/59
f 79/158/60 78/150/60 74/146/60
f 80/157/55 73/145/55 75/147/55
f 79/158/56 76/148/56 78/150/56
f 75/147/57 74/146/57 77/152/57
f 76/159/58 79/153/58 80/155/58
f 77/160/59 76/156/59 75/147/59
f 73/145/60 79/158/60 74/146/60
o OuterSupportRight_Shape9.008
v -0.250000 0.437500 0.437500
v -0.250000 1.625000 0.437500
v -0.062500 1.625000 0.437500
v -0.062500 0.437500 0.562500
v -0.062500 1.625000 0.562500
v -0.250000 1.625000 0.562500
v -0.250000 0.437500 0.562500
v -0.062500 0.437500 0.437500
vt 0.398438 0.429688
vt 0.398438 0.578125
vt 0.375000 0.578125
vt 0.437500 0.429688
vt 0.437500 0.578125
vt 0.414063 0.578125
vt 0.398438 0.593750
vt 0.375000 0.593750
vt 0.421875 0.578125
vt 0.421875 0.593750
vt 0.398438 0.593750
vt 0.375000 0.429688
vt 0.359375 0.578125
vt 0.414063 0.429688
vt 0.398438 0.578125
vt 0.359375 0.429688
vn 0.0000 0.0000 -1.0000
vn 0.0000 -0.0000 1.0000
vn 0.0000 1.0000 0.0000
vn 0.0000 -1.0000 0.0000
vn 1.0000 0.0000 0.0000
vn -1.0000 0.0000 0.0000
usemtl Material
s 1
f 81/161/61 82/162/61 83/163/61
f 84/164/62 85/165/62 86/166/62
f 82/162/63 86/167/63 85/168/63
f 87/169/64 81/170/64 88/171/64
f 88/172/65 83/163/65 85/173/65
f 87/174/66 86/166/66 82/162/66
f 88/172/61 81/161/61 83/163/61
f 87/174/62 84/164/62 86/166/62
f 83/163/63 82/162/63 85/168/63
f 84/175/64 87/169/64 88/171/64
f 84/176/65 88/172/65 85/173/65
f 81/161/66 87/174/66 82/162/66
o MainSupportRight_Shape7.004
v -0.062500 0.437500 0.375000
v -0.062500 3.000000 0.375000
v 0.000000 3.000000 0.375000
v 0.000000 0.437500 0.625000
v 0.000000 3.000000 0.625000
v -0.062500 3.000000 0.625000
v -0.062500 0.437500 0.625000
v 0.000000 0.437500 0.375000
vt 0.312500 0.242188
vt 0.312500 0.562500
vt 0.304688 0.562500
vt 0.351563 0.242188
vt 0.351563 0.562500
vt 0.343750 0.562500
vt 0.312500 0.593750
vt 0.304688 0.593750
vt 0.320313 0.562500
vt 0.320313 0.593750
vt 0.312500 0.593750
vt 0.304688 0.242188
vt 0.273438 0.562500
vt 0.343750 0.242188
vt 0.312500 0.562500
vt 0.273438 0.242188
vn 0.0000 0.0000 -1.0000
vn 0.0000 -0.0000 1.0000
vn 0.0000 1.0000 0.0000
vn 0.0000 -1.0000 -0.0000
vn 1.0000 0.0000 0.0000
vn -1.0000 0.0000 0.0000
usemtl Material
s 1
f 89/177/67 90/178/67 91/179/67
f 92/180/68 93/181/68 94/182/68
f 90/178/69 94/183/69 93/184/69
f 95/185/70 89/186/70 96/187/70
f 96/188/71 91/179/71 93/189/71
f 95/190/72 94/182/72 90/178/72
f 96/188/67 89/177/67 91/179/67
f 95/190/68 92/180/68 94/182/68
f 91/179/69 90/178/69 93/184/69
f 92/191/70 95/185/70 96/187/70
f 92/192/71 96/188/71 93/189/71
f 89/177/72 95/190/72 90/178/72
o BaseRight_railA.001_Shape15.003
v -1.000000 -0.002930 0.750000
v 0.000000 -0.002930 0.750000
v 0.000000 0.059570 0.750000
v -1.000000 0.059570 0.750000
v 0.000000 -0.002930 0.250000
v -1.000000 -0.002930 0.250000
v -1.000000 0.059570 0.250000
v 0.000000 0.059570 0.250000
vt 0.062500 0.929688
vt 0.187500 0.929688
vt 0.187500 0.937500
vt 0.062500 0.937500
vt 0.250000 0.929688
vt 0.375000 0.929688
vt 0.375000 0.937500
vt 0.250000 0.937500
vt 0.187500 1.000000
vt 0.062500 1.000000
vt 0.187500 0.937500
vt 0.312500 0.937500
vt 0.312500 1.000000
vt 0.187500 1.000000
vt 0.000000 0.929688
vt 0.000000 0.937500
vn 0.0000 0.0000 1.0000
vn 0.0000 0.0000 -1.0000
vn 0.0000 1.0000 0.0000
vn 0.0000 -1.0000 -0.0000
vn -1.0000 0.0000 0.0000
vn 1.0000 0.0000 0.0000
usemtl Material
s 1
f 97/193/73 98/194/73 99/195/73 100/196/73
f 101/197/74 102/198/74 103/199/74 104/200/74
f 100/196/75 99/195/75 104/201/75 103/202/75
f 102/203/76 101/204/76 98/205/76 97/206/76
f 102/207/77 97/193/77 100/196/77 103/208/77
f 98/194/78 101/197/78 104/200/78 99/195/78
o BaseLeft_railA_Shape15.003
v 2.000000 -0.002930 0.250000
v 1.000000 -0.002930 0.250000
v 1.000000 0.059570 0.250000
v 2.000000 0.059570 0.250000
v 1.000000 -0.002930 0.750000
v 2.000000 -0.002930 0.750000
v 2.000000 0.059570 0.750000
v 1.000000 0.059570 0.750000
vt 0.062500 0.929688
vt 0.187500 0.929688
vt 0.187500 0.937500
vt 0.062500 0.937500
vt 0.250000 0.929688
vt 0.375000 0.929688
vt 0.375000 0.937500
vt 0.250000 0.937500
vt 0.187500 1.000000
vt 0.062500 1.000000
vt 0.187500 0.937500
vt 0.312500 0.937500
vt 0.312500 1.000000
vt 0.187500 1.000000
vt 0.000000 0.929688
vt 0.000000 0.937500
vn 0.0000 0.0000 -1.0000
vn 0.0000 0.0000 1.0000
vn 0.0000 1.0000 0.0000
vn 0.0000 -1.0000 -0.0000
vn 1.0000 0.0000 0.0000
vn -1.0000 0.0000 0.0000
usemtl Material
s 1
f 105/209/79 106/210/79 107/211/79 108/212/79
f 109/213/80 110/214/80 111/215/80 112/216/80
f 108/212/81 107/211/81 112/217/81 111/218/81
f 110/219/82 109/220/82 106/221/82 105/222/82
f 110/223/83 105/209/83 108/212/83 111/224/83
f 106/210/84 109/213/84 112/216/84 107/211/84
