# Blender v2.80 (sub 74) OBJ File: ''
# www.blender.org
mtllib s_mine.mtl
o A
v 0.941942 0.125000 0.500000
v 0.941942 0.000000 0.500000
v 0.500000 0.125000 0.058058
v 0.500000 0.000000 0.058058
v 0.058058 0.125000 0.500000
v 0.058058 -0.000000 0.500000
v 0.500000 0.125000 0.941942
v 0.500000 -0.000000 0.941942
vt 0.000347 0.614784
vt 0.000347 0.539062
vt 0.221875 0.614784
vt 0.221875 0.539062
vt 0.444792 0.614784
vt 0.444792 0.539062
vt 0.666319 0.614784
vt 0.666319 0.539062
vt 0.444097 0.615986
vt 0.444097 0.999399
vt 0.222569 0.615986
vt 0.222569 0.999399
vt 0.666319 0.999399
vt 0.666319 0.615986
vt 0.444792 0.999399
vt 0.444792 0.615986
vt 0.667014 0.614784
vt 0.667014 0.539062
vt 0.888542 0.614784
vt 0.888542 0.539062
vt 0.222569 0.614784
vt 0.222569 0.539062
vt 0.444097 0.614784
vt 0.444097 0.539062
vn 0.7071 0.0000 -0.7071
vn -0.7071 0.0000 0.7071
vn 0.0000 1.0000 0.0000
vn -0.0000 -1.0000 -0.0000
vn 0.7071 0.0000 0.7071
vn -0.7071 0.0000 -0.7071
usemtl Material
s 1
f 1/1/1 2/2/1 3/3/1
f 2/2/1 4/4/1 3/3/1
f 5/5/2 6/6/2 7/7/2
f 6/6/2 8/8/2 7/7/2
f 5/9/3 7/10/3 3/11/3
f 7/10/3 1/12/3 3/11/3
f 8/13/4 6/14/4 2/15/4
f 6/14/4 4/16/4 2/15/4
f 7/17/5 8/18/5 1/19/5
f 8/18/5 2/20/5 1/19/5
f 3/21/6 4/22/6 5/23/6
f 4/22/6 6/24/6 5/23/6
o B
v 0.941942 0.062500 0.234835
v 0.941942 0.000000 0.234835
v 0.765165 0.062500 0.058058
v 0.765165 0.000000 0.058058
v 0.058058 0.062500 0.765165
v 0.058058 -0.000000 0.765165
v 0.234835 0.062500 0.941942
v 0.234835 -0.000000 0.941942
vt 0.000347 0.307091
vt 0.000347 0.269832
vt 0.088542 0.307091
vt 0.088542 0.269832
vt 0.444792 0.307091
vt 0.444792 0.269832
vt 0.532986 0.307091
vt 0.532986 0.269832
vt 0.444097 0.308293
vt 0.444097 0.460938
vt 0.089236 0.308293
vt 0.089236 0.460938
vt 0.799653 0.460938
vt 0.799653 0.308293
vt 0.444792 0.460938
vt 0.444792 0.308293
vt 0.533681 0.307091
vt 0.533681 0.269832
vt 0.888542 0.307091
vt 0.888542 0.269832
vt 0.089236 0.307091
vt 0.089236 0.269832
vt 0.444097 0.307091
vt 0.444097 0.269832
vn 0.7071 0.0000 -0.7071
vn -0.7071 0.0000 0.7071
vn -0.0000 1.0000 0.0000
vn -0.0000 -1.0000 -0.0000
vn 0.7071 0.0000 0.7071
vn -0.7071 0.0000 -0.7071
usemtl Material
s 1
f 9/25/7 10/26/7 11/27/7
f 10/26/7 12/28/7 11/27/7
f 13/29/8 14/30/8 15/31/8
f 14/30/8 16/32/8 15/31/8
f 13/33/9 15/34/9 11/35/9
f 15/34/9 9/36/9 11/35/9
f 16/37/10 14/38/10 10/39/10
f 14/38/10 12/40/10 10/39/10
f 15/41/11 16/42/11 9/43/11
f 16/42/11 10/44/11 9/43/11
f 11/45/12 12/46/12 13/47/12
f 12/46/12 14/48/12 13/47/12
o C
v 0.234835 0.062500 0.058058
v 0.234835 0.000000 0.058058
v 0.058058 0.062500 0.234835
v 0.058058 0.000000 0.234835
v 0.765165 0.062500 0.941942
v 0.765165 -0.000000 0.941942
v 0.941942 0.062500 0.765165
v 0.941942 -0.000000 0.765165
vt 0.000347 0.307091
vt 0.000347 0.269832
vt 0.088542 0.307091
vt 0.088542 0.269832
vt 0.444792 0.307091
vt 0.444792 0.269832
vt 0.532986 0.307091
vt 0.532986 0.269832
vt 0.444097 0.308293
vt 0.444097 0.460938
vt 0.089236 0.308293
vt 0.089236 0.460938
vt 0.799653 0.460938
vt 0.799653 0.308293
vt 0.444792 0.460938
vt 0.444792 0.308293
vt 0.533681 0.307091
vt 0.533681 0.269832
vt 0.888542 0.307091
vt 0.888542 0.269832
vt 0.089236 0.307091
vt 0.089236 0.269832
vt 0.444097 0.307091
vt 0.444097 0.269832
vn -0.7071 0.0000 -0.7071
vn 0.7071 0.0000 0.7071
vn 0.0000 1.0000 0.0000
vn 0.0000 -1.0000 -0.0000
vn 0.7071 0.0000 -0.7071
vn -0.7071 0.0000 0.7071
usemtl Material
s 1
f 17/49/13 18/50/13 19/51/13
f 18/50/13 20/52/13 19/51/13
f 21/53/14 22/54/14 23/55/14
f 22/54/14 24/56/14 23/55/14
f 21/57/15 23/58/15 19/59/15
f 23/58/15 17/60/15 19/59/15
f 24/61/16 22/62/16 18/63/16
f 22/62/16 20/64/16 18/63/16
f 23/65/17 24/66/17 17/67/17
f 24/66/17 18/68/17 17/67/17
f 19/69/18 20/70/18 21/71/18
f 20/70/18 22/72/18 21/71/18
